<!--Generated by IcoMoon.io--><svg version="1.1" xmlns="http://www.w3.org/2000/svg" width="1024" height="1024" viewBox="0 0 1024 1024" fill="#8D8D8D"><g id="icomoon-ignore"/><path d="M219.551 535.73c0.683 2.049 1.366 4.097 2.39 5.463 1.024 1.707 2.39 3.756 4.097 5.122 1.707 1.707 4.439 3.414 9.219 6.146 4.439 2.39 9.56 4.439 15.706 6.487s12.975 3.756 20.828 5.122c7.853 1.366 16.389 2.049 25.267 2.049 14.682 0 28.34-2.049 40.291-5.805 12.292-4.097 22.877-9.902 31.413-17.414s15.365-16.731 20.145-27.657c4.439-10.585 6.829-22.535 6.829-35.169 0-9.219-1.707-18.097-5.122-26.291s-8.195-15.365-14.341-21.511c-5.463-5.463-11.951-10.243-19.121-13.658 4.78-3.756 9.219-7.853 12.634-12.634 4.78-6.146 8.536-13.316 10.926-21.511 2.39-7.853 3.414-16.048 3.414-24.926 0-10.585-1.707-20.145-5.122-29.023s-8.878-17.072-16.048-23.56c-6.829-6.487-15.706-11.268-25.95-14.682-9.902-3.414-21.17-5.122-34.145-5.122-8.878 0-17.414 1.024-25.267 2.732s-14.682 3.756-20.828 6.146c-6.146 2.39-11.268 5.122-15.365 7.512-4.78 2.732-7.512 5.122-9.219 6.829-1.67 1.601-3.136 3.393-4.37 5.346l-0.069 0.116c-0.683 1.366-1.707 3.073-2.049 4.78-0.683 2.049-1.024 4.097-1.366 6.487v6.146c0 3.414 0 5.805 0.341 7.853 0 3.073 1.024 5.463 2.049 7.512 2.049 4.097 4.78 6.146 7.17 7.17 2.049 1.024 4.439 1.366 6.829 1.366 3.756 0 7.512-1.707 12.975-5.463 7.567-5.166 16.264-9.559 25.521-12.745l0.77-0.23c5.122-1.707 10.585-2.732 17.072-2.732 5.463 0 10.243 0.683 13.999 2.39 3.756 1.366 6.487 3.414 8.878 5.463 2.39 2.39 4.097 5.122 5.122 8.536 1.366 3.414 2.049 7.17 2.049 11.268 0 5.463-1.024 10.585-2.732 14.682-2.049 4.439-4.439 7.853-8.195 10.926-3.414 3.073-8.195 5.463-13.316 7.17-5.805 1.707-12.292 2.732-19.462 2.732h-21.853c-2.732 0-5.463 0.683-7.853 1.707-2.39 1.366-4.439 3.073-6.146 5.463-1.707 2.049-2.732 4.78-3.414 7.853-0.654 2.368-1.031 5.087-1.031 7.893 0 0.226 0.002 0.451 0.007 0.676v-0.033c0 3.756 0.341 6.829 1.024 9.56 0.683 3.073 2.049 5.463 3.414 7.512 1.707 2.732 4.097 4.439 7.17 5.805 2.39 1.024 4.78 1.707 7.512 1.707h24.584c9.219 0 17.414 1.024 24.584 2.732 6.829 1.707 12.292 4.439 16.731 7.853 4.097 3.073 7.17 6.829 9.56 10.926 2.049 4.097 3.073 8.878 3.073 14.341 0 5.122-0.683 9.56-2.732 13.658-1.707 4.097-4.097 7.17-7.17 10.243-3.604 3.21-7.947 5.677-12.736 7.109l-0.239 0.062c-5.463 1.707-11.951 2.732-19.462 2.732-7.853 0-15.365-1.024-21.511-2.732-6.829-2.049-12.975-4.097-17.755-6.146-5.122-2.049-9.219-4.097-12.292-6.146-5.463-3.414-9.219-4.439-12.634-4.439-5.805 0-10.926 3.073-13.658 8.536-1.707 3.414-2.732 7.853-2.732 14.682 0 3.073 0 5.805 0.341 7.853 0 2.732 0.683 4.78 1.366 6.829zM581.827 537.096c7.853-8.878 13.999-19.121 17.755-30.73 3.756-11.268 5.463-23.218 5.463-35.169 0-11.268-1.366-21.853-4.097-31.413-2.732-10.243-7.853-19.462-14.682-27.316-7.092-8.008-16.042-14.21-26.183-17.952l-0.449-0.145c-10.585-4.097-23.218-6.146-38.242-6.146-13.199 0.095-25.87 2.211-37.765 6.053l0.889-0.248c-3.414 1.024-6.487 2.049-9.219 3.414 0.683-4.439 1.707-9.219 2.732-13.316 2.39-9.56 5.805-18.097 10.585-25.267 4.439-6.829 10.243-12.292 17.414-16.389 6.829-4.097 15.365-5.805 25.608-5.805 5.805 0 10.926 0.341 15.365 1.024s8.195 1.707 11.268 2.732c3.414 1.024 6.146 2.049 8.536 2.732 3.756 1.366 6.829 2.049 9.56 2.049 4.439 0 7.512-1.707 9.219-2.732 2.39-1.707 4.097-3.756 5.122-6.829 1.024-2.39 1.707-4.78 1.707-7.853v-12.292c0-1.707-0.341-3.414-1.024-4.78-0.417-1.936-1.126-3.65-2.088-5.189l0.039 0.068c-1.231-2.289-2.832-4.217-4.746-5.778l-0.034-0.027c-2.359-1.759-5.066-3.255-7.965-4.362l-0.23-0.077c-7.806-3.146-16.85-5.331-26.289-6.123l-0.344-0.023c-5.122-0.683-10.585-1.024-15.706-1.024-15.365 0-29.023 2.049-40.973 6.487s-22.194 10.243-31.072 17.755c-8.536 7.512-15.706 16.389-21.511 26.291-5.463 9.56-9.902 20.145-12.975 31.072s-5.463 22.194-6.487 33.462c-1.024 11.268-1.707 22.535-1.707 33.462 0 12.634 0.683 24.243 1.707 35.169 1.024 11.268 2.732 21.511 5.463 31.072s6.146 18.438 10.585 26.291c4.439 8.195 10.585 15.024 17.414 20.828 6.829 5.463 15.024 9.902 24.243 12.975 8.878 3.073 19.462 4.439 31.072 4.439 16.048 0 30.047-2.732 42.339-7.853 11.951-5.463 22.194-12.634 30.047-21.511zM549.731 474.269c0 5.805-0.683 11.609-2.39 17.072-1.366 5.122-3.756 9.902-6.829 13.999s-6.829 7.17-11.268 9.56c-4.439 2.39-9.902 3.414-16.389 3.414s-11.951-1.024-16.731-3.414c-4.429-2.437-8.017-5.915-10.515-10.117l-0.069-0.127c-3.414-5.463-6.146-13.658-7.853-23.218-1.707-9.219-2.732-20.487-3.073-33.803 1.707-1.024 3.414-1.707 5.122-2.732 6.816-3.594 14.726-6.329 23.076-7.784l0.484-0.070c4.097-0.683 8.195-1.024 12.292-1.024 7.17 0 12.975 1.024 17.414 2.732 4.097 1.707 7.17 3.756 9.56 6.487 2.39 3.073 4.097 6.829 5.122 11.268 1.366 5.122 2.049 11.268 2.049 17.755zM632.702 528.218c7.512 12.634 17.755 22.194 30.389 28.682 12.292 6.487 27.316 9.56 44.73 9.56 18.438 0 34.145-3.756 47.12-10.585 12.975-7.17 23.56-17.414 31.413-30.389 7.853-12.292 13.316-27.316 16.389-44.388 3.073-16.389 4.78-34.827 4.78-54.631 0-21.17-1.366-40.291-4.439-56.68-3.073-17.072-8.195-32.096-15.365-44.047-7.512-12.634-17.755-22.194-30.389-28.682-12.292-6.487-27.316-9.56-44.73-9.56s-34.145 3.756-46.778 10.585c-12.975 7.17-23.56 17.414-31.413 30.389-7.512 12.292-12.975 27.316-16.389 44.388-3.073 16.389-4.78 34.827-4.78 54.631 0 21.17 1.366 40.291 4.439 56.68 3.073 17.072 8.195 32.096 15.365 44.047zM668.554 425.443c0-13.316 0.683-26.291 2.049-37.901 1.366-10.926 3.756-20.487 7.17-28.682 3.073-7.17 7.512-12.975 12.634-17.072 4.78-3.756 11.609-5.463 20.145-5.463 5.122 0 9.56 0.683 13.316 2.049 3.414 1.024 6.487 2.732 9.219 5.463s5.463 6.146 7.512 10.243c2.39 4.78 4.439 10.585 5.805 17.072 1.707 7.17 2.732 15.365 3.756 24.926s1.366 20.487 1.366 32.779c0 8.878 0 17.755-0.683 25.95-0.683 7.853-1.707 15.365-3.073 22.194-1.366 6.487-3.414 12.634-5.463 18.097-2.049 4.78-4.78 9.219-7.853 12.634-2.732 3.073-6.146 5.463-10.243 7.17s-9.219 2.732-14.682 2.732c-7.17 0-13.316-1.366-18.097-4.097-5.096-3.198-9.087-7.737-11.532-13.128l-0.077-0.189c-3.756-7.17-6.487-16.731-8.195-28.682-1.707-12.292-2.732-27.999-2.732-46.095zM835.863 374.567c5.122 4.78 11.268 8.536 18.097 11.268s14.341 3.756 22.535 3.756 16.048-1.366 22.877-4.097c7.17-2.732 13.316-6.829 18.779-11.951s9.56-11.268 12.292-18.097c3.073-6.829 4.439-14.341 4.439-22.194s-1.366-15.365-4.439-22.194c-5.93-13.277-16.704-23.496-30.021-28.559l-0.368-0.123c-6.829-2.732-14.341-4.097-22.535-4.097s-16.048 1.366-22.877 4.097c-7.17 2.732-13.316 6.829-18.438 11.609-5.463 5.122-9.56 10.926-12.634 18.097-3.073 6.829-4.439 14.682-4.439 22.535s1.366 15.365 4.439 22.194c2.732 6.829 7.17 12.634 12.292 17.414zM889.129 333.935c0 2.049 0 4.097-1.024 5.805-0.683 1.707-1.707 3.414-2.732 4.439s-2.049 2.049-3.756 2.732c-1.364 0.567-2.948 0.897-4.61 0.897s-3.245-0.329-4.691-0.927l0.082 0.030c-1.707-0.683-2.732-1.707-4.097-2.732-1.148-1.139-2.072-2.501-2.702-4.016l-0.030-0.081c-0.65-1.88-1.025-4.047-1.025-6.301 0-0.066 0-0.132 0.001-0.197v0.010c0-2.049 0-3.756 1.024-5.463 0.683-1.707 1.366-3.073 2.732-4.097 1.024-1.024 2.39-2.049 3.756-2.732 1.283-0.65 2.797-1.031 4.401-1.031 0.133 0 0.266 0.003 0.398 0.008h-0.019c2.049 0 3.414 0 4.78 1.024 1.366 0.683 2.732 1.366 3.756 2.732 1.024 1.024 2.049 2.732 2.732 4.097 0.683 1.707 1.024 3.756 1.024 5.805zM864.886 428.174c-1.941-0.507-4.17-0.799-6.466-0.799-12.185 0-22.455 8.205-25.585 19.392l-0.045 0.187c-0.507 1.941-0.799 4.17-0.799 6.466 0 12.185 8.205 22.455 19.392 25.585l0.187 0.045c98.679 25.95 120.189 54.631 120.189 63.168s-20.145 35.852-113.019 61.46c-82.972 22.877-194.966 36.535-316.18 38.583-14.341 0-25.95 12.292-25.608 26.633 0 14.341 11.951 25.608 26.291 25.608h0.341c125.311-2.049 242.086-16.389 329.155-40.291 100.385-27.657 151.261-65.216 151.261-111.653s-53.607-86.045-159.114-113.702zM448.321 596.166c-4.705-4.749-11.228-7.689-18.438-7.689s-13.733 2.94-18.436 7.688l-0.002 0.002c-10.243 10.243-10.243 26.633 0 36.876l6.487 6.487c-96.288-5.122-185.064-17.755-252.671-36.193-92.874-25.608-113.019-52.924-113.019-61.46s21.511-37.218 120.189-63.168c13.999-3.756 22.194-18.097 18.438-32.096-1.87-6.901-6.293-12.548-12.167-15.981l-0.125-0.067c-3.816-2.224-8.4-3.537-13.29-3.537-2.313 0-4.559 0.294-6.699 0.846l0.185-0.041c-105.166 28.34-158.773 66.582-158.773 114.385s50.876 83.996 151.261 111.653c72.387 19.804 166.968 33.462 269.060 38.242l-9.219 9.219c-4.75 4.705-7.69 11.228-7.69 18.439 0 14.332 11.618 25.95 25.95 25.95 0.063 0 0.126 0 0.188 0h-0.010c6.487 0 13.316-2.732 18.438-7.512l52.583-52.583c10.243-10.243 10.243-26.633 0-36.876l-52.583-52.583z"/></svg>